# xmcd
#
# Track frame offsets:
#	150
#	18312
#	32052
#	44192
#	61815
#	78335
#	90637
#	104222
#	116242
#	130567
#
# Disc length: 1957 seconds
#
# Revision: 1
# Processed by: cddbd v1.5.2PL0 Copyright (c) Steve Scherf et al.
# Submitted via: EasyCDDAExtractor 16.0.1.1
#
DISCID=8507a30a
DTITLE=Clint Black - No Time To Kill
DYEAR=1993
DGENRE=Country
TTITLE0=No Time To Kill
TTITLE1=Thinkin' Again
TTITLE2=A Good Run Of Bad Luck
TTITLE3=State Of Mind
TTITLE4=A Bad Goodbye
TTITLE5=Back To Back
TTITLE6=Half The Man
TTITLE7=I'll Take Texas
TTITLE8=Happiness Alone
TTITLE9=Tuckered Out
EXTD=BMG-1993
EXTT0=
EXTT1=
EXTT2=
EXTT3=
EXTT4=
EXTT5=
EXTT6=
EXTT7=
EXTT8=
EXTT9=
PLAYORDER=
